<?xml version="1.0" encoding="utf-8" standalone="no"?>
<!DOCTYPE svg PUBLIC "-//W3C//DTD SVG 1.1//EN"
  "http://www.w3.org/Graphics/SVG/1.1/DTD/svg11.dtd">
<svg xmlns:xlink="http://www.w3.org/1999/xlink" width="699.737494pt" height="608.201953pt" viewBox="0 0 699.737494 608.201953" xmlns="http://www.w3.org/2000/svg" version="1.1">
 <metadata>
  <rdf:RDF xmlns:dc="http://purl.org/dc/elements/1.1/" xmlns:cc="http://creativecommons.org/ns#" xmlns:rdf="http://www.w3.org/1999/02/22-rdf-syntax-ns#">
   <cc:Work>
    <dc:type rdf:resource="http://purl.org/dc/dcmitype/StillImage"/>
    <dc:date>2025-04-26T22:07:05.745872</dc:date>
    <dc:format>image/svg+xml</dc:format>
    <dc:creator>
     <cc:Agent>
      <dc:title>Matplotlib v3.10.0, https://matplotlib.org/</dc:title>
     </cc:Agent>
    </dc:creator>
   </cc:Work>
  </rdf:RDF>
 </metadata>
 <defs>
  <style type="text/css">*{stroke-linejoin: round; stroke-linecap: butt}</style>
 </defs>
 <g id="figure_1">
  <g id="patch_1">
   <path d="M 0 608.201953 
L 699.737494 608.201953 
L 699.737494 0 
L 0 0 
z
" style="fill: #ffffff"/>
  </g>
  <g id="axes_1">
   <g id="patch_2">
    <path d="M 549.558696 352.703957 
C 549.558696 320.097763 543.135987 287.808623 530.658137 257.684428 
C 518.180286 227.560233 499.889958 200.186822 476.833897 177.130761 
C 453.777836 154.0747 426.404425 135.784371 396.280229 123.306521 
C 366.156034 110.828671 333.866894 104.405961 301.2607 104.405961 
C 268.654506 104.405961 236.365366 110.828671 206.241171 123.306521 
C 176.116975 135.784371 148.743564 154.0747 125.687503 177.130761 
C 102.631442 200.186822 84.341114 227.560233 71.863264 257.684428 
C 59.385413 287.808623 52.962704 320.097763 52.962704 352.703957 
C 52.962704 385.310151 59.385413 417.599291 71.863264 447.723487 
C 84.341114 477.847682 102.631442 505.221093 125.687503 528.277154 
C 148.743564 551.333215 176.116975 569.623543 206.241171 582.101394 
C 236.365366 594.579244 268.654506 601.001953 301.2607 601.001953 
C 333.866894 601.001953 366.156034 594.579244 396.280229 582.101394 
C 426.404425 569.623543 453.777836 551.333215 476.833897 528.277154 
C 499.889958 505.221093 518.180286 477.847682 530.658137 447.723487 
C 543.135987 417.599291 549.558696 385.310151 549.558696 352.703957 
M 301.2607 352.703957 
C 301.2607 352.703957 301.2607 352.703957 301.2607 352.703957 
C 301.2607 352.703957 301.2607 352.703957 301.2607 352.703957 
C 301.2607 352.703957 301.2607 352.703957 301.2607 352.703957 
C 301.2607 352.703957 301.2607 352.703957 301.2607 352.703957 
C 301.2607 352.703957 301.2607 352.703957 301.2607 352.703957 
C 301.2607 352.703957 301.2607 352.703957 301.2607 352.703957 
C 301.2607 352.703957 301.2607 352.703957 301.2607 352.703957 
C 301.2607 352.703957 301.2607 352.703957 301.2607 352.703957 
C 301.2607 352.703957 301.2607 352.703957 301.2607 352.703957 
C 301.2607 352.703957 301.2607 352.703957 301.2607 352.703957 
C 301.2607 352.703957 301.2607 352.703957 301.2607 352.703957 
C 301.2607 352.703957 301.2607 352.703957 301.2607 352.703957 
C 301.2607 352.703957 301.2607 352.703957 301.2607 352.703957 
C 301.2607 352.703957 301.2607 352.703957 301.2607 352.703957 
C 301.2607 352.703957 301.2607 352.703957 301.2607 352.703957 
C 301.2607 352.703957 301.2607 352.703957 301.2607 352.703957 
z
" style="fill: #ffffff"/>
   </g>
   <g id="patch_3">
    <path d="M 301.2607 352.703957 
L 301.2607 352.703957 
L 301.2607 352.703957 
L 301.2607 352.703957 
L 301.2607 352.703957 
L 301.2607 352.703957 
L 301.2607 352.703957 
z
" clip-path="url(#p872ad9a2ec)" style="fill: #4e9231; opacity: 0.2; stroke: #4e9231; stroke-linejoin: miter"/>
   </g>
   <g id="patch_4">
    <path d="M 301.2607 268.895942 
L 337.968718 323.43029 
L 362.804971 366.751035 
L 334.502451 421.731164 
L 236.419872 487.347325 
L 233.066279 368.268889 
L 221.130701 288.802415 
z
" clip-path="url(#p872ad9a2ec)" style="fill: #246068; opacity: 0.2; stroke: #246068; stroke-linejoin: miter"/>
   </g>
   <g id="patch_5">
    <path d="M 301.2607 241.853879 
L 343.590875 318.94677 
L 474.193832 392.174816 
L 354.557574 463.376057 
L 234.153081 492.054365 
L 102.011698 398.181242 
L 201.725163 273.327015 
z
" clip-path="url(#p872ad9a2ec)" style="fill: #aa7339; opacity: 0.2; stroke: #aa7339; stroke-linejoin: miter"/>
   </g>
   <g id="patch_6">
    <path d="M 301.2607 104.405961 
L 495.38789 197.892689 
L 543.333347 407.955459 
L 408.993163 576.412722 
L 193.528237 576.412722 
L 59.188053 407.955459 
L 107.13351 197.892689 
z
" clip-path="url(#p872ad9a2ec)" style="fill: #aa3c39; opacity: 0.2; stroke: #aa3c39; stroke-linejoin: miter"/>
   </g>
   <g id="matplotlib.axis_1">
    <g id="xtick_1">
     <g id="line2d_1">
      <path d="M 301.2607 352.703957 
L 301.2607 104.405961 
" clip-path="url(#p872ad9a2ec)" style="fill: none; stroke: #b0b0b0; stroke-width: 0.8; stroke-linecap: square"/>
     </g>
     <g id="text_1">
      <!-- GHG Emissions -->
      <g transform="translate(255.723513 93.717211) scale(0.12 -0.12)">
       <defs>
        <path id="DejaVuSans-47" d="M 3809 666 
L 3809 1919 
L 2778 1919 
L 2778 2438 
L 4434 2438 
L 4434 434 
Q 4069 175 3628 42 
Q 3188 -91 2688 -91 
Q 1594 -91 976 548 
Q 359 1188 359 2328 
Q 359 3472 976 4111 
Q 1594 4750 2688 4750 
Q 3144 4750 3555 4637 
Q 3966 4525 4313 4306 
L 4313 3634 
Q 3963 3931 3569 4081 
Q 3175 4231 2741 4231 
Q 1884 4231 1454 3753 
Q 1025 3275 1025 2328 
Q 1025 1384 1454 906 
Q 1884 428 2741 428 
Q 3075 428 3337 486 
Q 3600 544 3809 666 
z
" transform="scale(0.015625)"/>
        <path id="DejaVuSans-48" d="M 628 4666 
L 1259 4666 
L 1259 2753 
L 3553 2753 
L 3553 4666 
L 4184 4666 
L 4184 0 
L 3553 0 
L 3553 2222 
L 1259 2222 
L 1259 0 
L 628 0 
L 628 4666 
z
" transform="scale(0.015625)"/>
        <path id="DejaVuSans-20" transform="scale(0.015625)"/>
        <path id="DejaVuSans-45" d="M 628 4666 
L 3578 4666 
L 3578 4134 
L 1259 4134 
L 1259 2753 
L 3481 2753 
L 3481 2222 
L 1259 2222 
L 1259 531 
L 3634 531 
L 3634 0 
L 628 0 
L 628 4666 
z
" transform="scale(0.015625)"/>
        <path id="DejaVuSans-6d" d="M 3328 2828 
Q 3544 3216 3844 3400 
Q 4144 3584 4550 3584 
Q 5097 3584 5394 3201 
Q 5691 2819 5691 2113 
L 5691 0 
L 5113 0 
L 5113 2094 
Q 5113 2597 4934 2840 
Q 4756 3084 4391 3084 
Q 3944 3084 3684 2787 
Q 3425 2491 3425 1978 
L 3425 0 
L 2847 0 
L 2847 2094 
Q 2847 2600 2669 2842 
Q 2491 3084 2119 3084 
Q 1678 3084 1418 2786 
Q 1159 2488 1159 1978 
L 1159 0 
L 581 0 
L 581 3500 
L 1159 3500 
L 1159 2956 
Q 1356 3278 1631 3431 
Q 1906 3584 2284 3584 
Q 2666 3584 2933 3390 
Q 3200 3197 3328 2828 
z
" transform="scale(0.015625)"/>
        <path id="DejaVuSans-69" d="M 603 3500 
L 1178 3500 
L 1178 0 
L 603 0 
L 603 3500 
z
M 603 4863 
L 1178 4863 
L 1178 4134 
L 603 4134 
L 603 4863 
z
" transform="scale(0.015625)"/>
        <path id="DejaVuSans-73" d="M 2834 3397 
L 2834 2853 
Q 2591 2978 2328 3040 
Q 2066 3103 1784 3103 
Q 1356 3103 1142 2972 
Q 928 2841 928 2578 
Q 928 2378 1081 2264 
Q 1234 2150 1697 2047 
L 1894 2003 
Q 2506 1872 2764 1633 
Q 3022 1394 3022 966 
Q 3022 478 2636 193 
Q 2250 -91 1575 -91 
Q 1294 -91 989 -36 
Q 684 19 347 128 
L 347 722 
Q 666 556 975 473 
Q 1284 391 1588 391 
Q 1994 391 2212 530 
Q 2431 669 2431 922 
Q 2431 1156 2273 1281 
Q 2116 1406 1581 1522 
L 1381 1569 
Q 847 1681 609 1914 
Q 372 2147 372 2553 
Q 372 3047 722 3315 
Q 1072 3584 1716 3584 
Q 2034 3584 2315 3537 
Q 2597 3491 2834 3397 
z
" transform="scale(0.015625)"/>
        <path id="DejaVuSans-6f" d="M 1959 3097 
Q 1497 3097 1228 2736 
Q 959 2375 959 1747 
Q 959 1119 1226 758 
Q 1494 397 1959 397 
Q 2419 397 2687 759 
Q 2956 1122 2956 1747 
Q 2956 2369 2687 2733 
Q 2419 3097 1959 3097 
z
M 1959 3584 
Q 2709 3584 3137 3096 
Q 3566 2609 3566 1747 
Q 3566 888 3137 398 
Q 2709 -91 1959 -91 
Q 1206 -91 779 398 
Q 353 888 353 1747 
Q 353 2609 779 3096 
Q 1206 3584 1959 3584 
z
" transform="scale(0.015625)"/>
        <path id="DejaVuSans-6e" d="M 3513 2113 
L 3513 0 
L 2938 0 
L 2938 2094 
Q 2938 2591 2744 2837 
Q 2550 3084 2163 3084 
Q 1697 3084 1428 2787 
Q 1159 2491 1159 1978 
L 1159 0 
L 581 0 
L 581 3500 
L 1159 3500 
L 1159 2956 
Q 1366 3272 1645 3428 
Q 1925 3584 2291 3584 
Q 2894 3584 3203 3211 
Q 3513 2838 3513 2113 
z
" transform="scale(0.015625)"/>
       </defs>
       <use xlink:href="#DejaVuSans-47"/>
       <use xlink:href="#DejaVuSans-48" transform="translate(77.490234 0)"/>
       <use xlink:href="#DejaVuSans-47" transform="translate(152.685547 0)"/>
       <use xlink:href="#DejaVuSans-20" transform="translate(230.175781 0)"/>
       <use xlink:href="#DejaVuSans-45" transform="translate(261.962891 0)"/>
       <use xlink:href="#DejaVuSans-6d" transform="translate(325.146484 0)"/>
       <use xlink:href="#DejaVuSans-69" transform="translate(422.558594 0)"/>
       <use xlink:href="#DejaVuSans-73" transform="translate(450.341797 0)"/>
       <use xlink:href="#DejaVuSans-73" transform="translate(502.441406 0)"/>
       <use xlink:href="#DejaVuSans-69" transform="translate(554.541016 0)"/>
       <use xlink:href="#DejaVuSans-6f" transform="translate(582.324219 0)"/>
       <use xlink:href="#DejaVuSans-6e" transform="translate(643.505859 0)"/>
       <use xlink:href="#DejaVuSans-73" transform="translate(706.884766 0)"/>
      </g>
     </g>
    </g>
    <g id="xtick_2">
     <g id="line2d_2">
      <path d="M 301.2607 352.703957 
L 495.38789 197.892689 
" clip-path="url(#p872ad9a2ec)" style="fill: none; stroke: #b0b0b0; stroke-width: 0.8; stroke-linecap: square"/>
     </g>
     <g id="text_2">
      <!-- Land Use -->
      <g transform="translate(478.586344 192.475082) scale(0.12 -0.12)">
       <defs>
        <path id="DejaVuSans-4c" d="M 628 4666 
L 1259 4666 
L 1259 531 
L 3531 531 
L 3531 0 
L 628 0 
L 628 4666 
z
" transform="scale(0.015625)"/>
        <path id="DejaVuSans-61" d="M 2194 1759 
Q 1497 1759 1228 1600 
Q 959 1441 959 1056 
Q 959 750 1161 570 
Q 1363 391 1709 391 
Q 2188 391 2477 730 
Q 2766 1069 2766 1631 
L 2766 1759 
L 2194 1759 
z
M 3341 1997 
L 3341 0 
L 2766 0 
L 2766 531 
Q 2569 213 2275 61 
Q 1981 -91 1556 -91 
Q 1019 -91 701 211 
Q 384 513 384 1019 
Q 384 1609 779 1909 
Q 1175 2209 1959 2209 
L 2766 2209 
L 2766 2266 
Q 2766 2663 2505 2880 
Q 2244 3097 1772 3097 
Q 1472 3097 1187 3025 
Q 903 2953 641 2809 
L 641 3341 
Q 956 3463 1253 3523 
Q 1550 3584 1831 3584 
Q 2591 3584 2966 3190 
Q 3341 2797 3341 1997 
z
" transform="scale(0.015625)"/>
        <path id="DejaVuSans-64" d="M 2906 2969 
L 2906 4863 
L 3481 4863 
L 3481 0 
L 2906 0 
L 2906 525 
Q 2725 213 2448 61 
Q 2172 -91 1784 -91 
Q 1150 -91 751 415 
Q 353 922 353 1747 
Q 353 2572 751 3078 
Q 1150 3584 1784 3584 
Q 2172 3584 2448 3432 
Q 2725 3281 2906 2969 
z
M 947 1747 
Q 947 1113 1208 752 
Q 1469 391 1925 391 
Q 2381 391 2643 752 
Q 2906 1113 2906 1747 
Q 2906 2381 2643 2742 
Q 2381 3103 1925 3103 
Q 1469 3103 1208 2742 
Q 947 2381 947 1747 
z
" transform="scale(0.015625)"/>
        <path id="DejaVuSans-55" d="M 556 4666 
L 1191 4666 
L 1191 1831 
Q 1191 1081 1462 751 
Q 1734 422 2344 422 
Q 2950 422 3222 751 
Q 3494 1081 3494 1831 
L 3494 4666 
L 4128 4666 
L 4128 1753 
Q 4128 841 3676 375 
Q 3225 -91 2344 -91 
Q 1459 -91 1007 375 
Q 556 841 556 1753 
L 556 4666 
z
" transform="scale(0.015625)"/>
        <path id="DejaVuSans-65" d="M 3597 1894 
L 3597 1613 
L 953 1613 
Q 991 1019 1311 708 
Q 1631 397 2203 397 
Q 2534 397 2845 478 
Q 3156 559 3463 722 
L 3463 178 
Q 3153 47 2828 -22 
Q 2503 -91 2169 -91 
Q 1331 -91 842 396 
Q 353 884 353 1716 
Q 353 2575 817 3079 
Q 1281 3584 2069 3584 
Q 2775 3584 3186 3129 
Q 3597 2675 3597 1894 
z
M 3022 2063 
Q 3016 2534 2758 2815 
Q 2500 3097 2075 3097 
Q 1594 3097 1305 2825 
Q 1016 2553 972 2059 
L 3022 2063 
z
" transform="scale(0.015625)"/>
       </defs>
       <use xlink:href="#DejaVuSans-4c"/>
       <use xlink:href="#DejaVuSans-61" transform="translate(55.712891 0)"/>
       <use xlink:href="#DejaVuSans-6e" transform="translate(116.992188 0)"/>
       <use xlink:href="#DejaVuSans-64" transform="translate(180.371094 0)"/>
       <use xlink:href="#DejaVuSans-20" transform="translate(243.847656 0)"/>
       <use xlink:href="#DejaVuSans-55" transform="translate(275.634766 0)"/>
       <use xlink:href="#DejaVuSans-73" transform="translate(348.828125 0)"/>
       <use xlink:href="#DejaVuSans-65" transform="translate(400.927734 0)"/>
      </g>
     </g>
    </g>
    <g id="xtick_3">
     <g id="line2d_3">
      <path d="M 301.2607 352.703957 
L 543.333347 407.955459 
" clip-path="url(#p872ad9a2ec)" style="fill: none; stroke: #b0b0b0; stroke-width: 0.8; stroke-linecap: square"/>
     </g>
     <g id="text_3">
      <!-- Water Scarcity -->
      <g transform="translate(513.352025 414.382002) scale(0.12 -0.12)">
       <defs>
        <path id="DejaVuSans-57" d="M 213 4666 
L 850 4666 
L 1831 722 
L 2809 4666 
L 3519 4666 
L 4500 722 
L 5478 4666 
L 6119 4666 
L 4947 0 
L 4153 0 
L 3169 4050 
L 2175 0 
L 1381 0 
L 213 4666 
z
" transform="scale(0.015625)"/>
        <path id="DejaVuSans-74" d="M 1172 4494 
L 1172 3500 
L 2356 3500 
L 2356 3053 
L 1172 3053 
L 1172 1153 
Q 1172 725 1289 603 
Q 1406 481 1766 481 
L 2356 481 
L 2356 0 
L 1766 0 
Q 1100 0 847 248 
Q 594 497 594 1153 
L 594 3053 
L 172 3053 
L 172 3500 
L 594 3500 
L 594 4494 
L 1172 4494 
z
" transform="scale(0.015625)"/>
        <path id="DejaVuSans-72" d="M 2631 2963 
Q 2534 3019 2420 3045 
Q 2306 3072 2169 3072 
Q 1681 3072 1420 2755 
Q 1159 2438 1159 1844 
L 1159 0 
L 581 0 
L 581 3500 
L 1159 3500 
L 1159 2956 
Q 1341 3275 1631 3429 
Q 1922 3584 2338 3584 
Q 2397 3584 2469 3576 
Q 2541 3569 2628 3553 
L 2631 2963 
z
" transform="scale(0.015625)"/>
        <path id="DejaVuSans-53" d="M 3425 4513 
L 3425 3897 
Q 3066 4069 2747 4153 
Q 2428 4238 2131 4238 
Q 1616 4238 1336 4038 
Q 1056 3838 1056 3469 
Q 1056 3159 1242 3001 
Q 1428 2844 1947 2747 
L 2328 2669 
Q 3034 2534 3370 2195 
Q 3706 1856 3706 1288 
Q 3706 609 3251 259 
Q 2797 -91 1919 -91 
Q 1588 -91 1214 -16 
Q 841 59 441 206 
L 441 856 
Q 825 641 1194 531 
Q 1563 422 1919 422 
Q 2459 422 2753 634 
Q 3047 847 3047 1241 
Q 3047 1584 2836 1778 
Q 2625 1972 2144 2069 
L 1759 2144 
Q 1053 2284 737 2584 
Q 422 2884 422 3419 
Q 422 4038 858 4394 
Q 1294 4750 2059 4750 
Q 2388 4750 2728 4690 
Q 3069 4631 3425 4513 
z
" transform="scale(0.015625)"/>
        <path id="DejaVuSans-63" d="M 3122 3366 
L 3122 2828 
Q 2878 2963 2633 3030 
Q 2388 3097 2138 3097 
Q 1578 3097 1268 2742 
Q 959 2388 959 1747 
Q 959 1106 1268 751 
Q 1578 397 2138 397 
Q 2388 397 2633 464 
Q 2878 531 3122 666 
L 3122 134 
Q 2881 22 2623 -34 
Q 2366 -91 2075 -91 
Q 1284 -91 818 406 
Q 353 903 353 1747 
Q 353 2603 823 3093 
Q 1294 3584 2113 3584 
Q 2378 3584 2631 3529 
Q 2884 3475 3122 3366 
z
" transform="scale(0.015625)"/>
        <path id="DejaVuSans-79" d="M 2059 -325 
Q 1816 -950 1584 -1140 
Q 1353 -1331 966 -1331 
L 506 -1331 
L 506 -850 
L 844 -850 
Q 1081 -850 1212 -737 
Q 1344 -625 1503 -206 
L 1606 56 
L 191 3500 
L 800 3500 
L 1894 763 
L 2988 3500 
L 3597 3500 
L 2059 -325 
z
" transform="scale(0.015625)"/>
       </defs>
       <use xlink:href="#DejaVuSans-57"/>
       <use xlink:href="#DejaVuSans-61" transform="translate(92.501953 0)"/>
       <use xlink:href="#DejaVuSans-74" transform="translate(153.78125 0)"/>
       <use xlink:href="#DejaVuSans-65" transform="translate(192.990234 0)"/>
       <use xlink:href="#DejaVuSans-72" transform="translate(254.513672 0)"/>
       <use xlink:href="#DejaVuSans-20" transform="translate(295.626953 0)"/>
       <use xlink:href="#DejaVuSans-53" transform="translate(327.414062 0)"/>
       <use xlink:href="#DejaVuSans-63" transform="translate(390.890625 0)"/>
       <use xlink:href="#DejaVuSans-61" transform="translate(445.871094 0)"/>
       <use xlink:href="#DejaVuSans-72" transform="translate(507.150391 0)"/>
       <use xlink:href="#DejaVuSans-63" transform="translate(546.013672 0)"/>
       <use xlink:href="#DejaVuSans-69" transform="translate(600.994141 0)"/>
       <use xlink:href="#DejaVuSans-74" transform="translate(628.777344 0)"/>
       <use xlink:href="#DejaVuSans-79" transform="translate(667.986328 0)"/>
      </g>
     </g>
    </g>
    <g id="xtick_4">
     <g id="line2d_4">
      <path d="M 301.2607 352.703957 
L 408.993163 576.412722 
" clip-path="url(#p872ad9a2ec)" style="fill: none; stroke: #b0b0b0; stroke-width: 0.8; stroke-linecap: square"/>
     </g>
     <g id="text_4">
      <!-- Eutrophication Potential -->
      <g transform="translate(343.183785 592.337536) scale(0.12 -0.12)">
       <defs>
        <path id="DejaVuSans-75" d="M 544 1381 
L 544 3500 
L 1119 3500 
L 1119 1403 
Q 1119 906 1312 657 
Q 1506 409 1894 409 
Q 2359 409 2629 706 
Q 2900 1003 2900 1516 
L 2900 3500 
L 3475 3500 
L 3475 0 
L 2900 0 
L 2900 538 
Q 2691 219 2414 64 
Q 2138 -91 1772 -91 
Q 1169 -91 856 284 
Q 544 659 544 1381 
z
M 1991 3584 
L 1991 3584 
z
" transform="scale(0.015625)"/>
        <path id="DejaVuSans-70" d="M 1159 525 
L 1159 -1331 
L 581 -1331 
L 581 3500 
L 1159 3500 
L 1159 2969 
Q 1341 3281 1617 3432 
Q 1894 3584 2278 3584 
Q 2916 3584 3314 3078 
Q 3713 2572 3713 1747 
Q 3713 922 3314 415 
Q 2916 -91 2278 -91 
Q 1894 -91 1617 61 
Q 1341 213 1159 525 
z
M 3116 1747 
Q 3116 2381 2855 2742 
Q 2594 3103 2138 3103 
Q 1681 3103 1420 2742 
Q 1159 2381 1159 1747 
Q 1159 1113 1420 752 
Q 1681 391 2138 391 
Q 2594 391 2855 752 
Q 3116 1113 3116 1747 
z
" transform="scale(0.015625)"/>
        <path id="DejaVuSans-68" d="M 3513 2113 
L 3513 0 
L 2938 0 
L 2938 2094 
Q 2938 2591 2744 2837 
Q 2550 3084 2163 3084 
Q 1697 3084 1428 2787 
Q 1159 2491 1159 1978 
L 1159 0 
L 581 0 
L 581 4863 
L 1159 4863 
L 1159 2956 
Q 1366 3272 1645 3428 
Q 1925 3584 2291 3584 
Q 2894 3584 3203 3211 
Q 3513 2838 3513 2113 
z
" transform="scale(0.015625)"/>
        <path id="DejaVuSans-50" d="M 1259 4147 
L 1259 2394 
L 2053 2394 
Q 2494 2394 2734 2622 
Q 2975 2850 2975 3272 
Q 2975 3691 2734 3919 
Q 2494 4147 2053 4147 
L 1259 4147 
z
M 628 4666 
L 2053 4666 
Q 2838 4666 3239 4311 
Q 3641 3956 3641 3272 
Q 3641 2581 3239 2228 
Q 2838 1875 2053 1875 
L 1259 1875 
L 1259 0 
L 628 0 
L 628 4666 
z
" transform="scale(0.015625)"/>
        <path id="DejaVuSans-6c" d="M 603 4863 
L 1178 4863 
L 1178 0 
L 603 0 
L 603 4863 
z
" transform="scale(0.015625)"/>
       </defs>
       <use xlink:href="#DejaVuSans-45"/>
       <use xlink:href="#DejaVuSans-75" transform="translate(63.183594 0)"/>
       <use xlink:href="#DejaVuSans-74" transform="translate(126.5625 0)"/>
       <use xlink:href="#DejaVuSans-72" transform="translate(165.771484 0)"/>
       <use xlink:href="#DejaVuSans-6f" transform="translate(204.634766 0)"/>
       <use xlink:href="#DejaVuSans-70" transform="translate(265.816406 0)"/>
       <use xlink:href="#DejaVuSans-68" transform="translate(329.292969 0)"/>
       <use xlink:href="#DejaVuSans-69" transform="translate(392.671875 0)"/>
       <use xlink:href="#DejaVuSans-63" transform="translate(420.455078 0)"/>
       <use xlink:href="#DejaVuSans-61" transform="translate(475.435547 0)"/>
       <use xlink:href="#DejaVuSans-74" transform="translate(536.714844 0)"/>
       <use xlink:href="#DejaVuSans-69" transform="translate(575.923828 0)"/>
       <use xlink:href="#DejaVuSans-6f" transform="translate(603.707031 0)"/>
       <use xlink:href="#DejaVuSans-6e" transform="translate(664.888672 0)"/>
       <use xlink:href="#DejaVuSans-20" transform="translate(728.267578 0)"/>
       <use xlink:href="#DejaVuSans-50" transform="translate(760.054688 0)"/>
       <use xlink:href="#DejaVuSans-6f" transform="translate(816.732422 0)"/>
       <use xlink:href="#DejaVuSans-74" transform="translate(877.914062 0)"/>
       <use xlink:href="#DejaVuSans-65" transform="translate(917.123047 0)"/>
       <use xlink:href="#DejaVuSans-6e" transform="translate(978.646484 0)"/>
       <use xlink:href="#DejaVuSans-74" transform="translate(1042.025391 0)"/>
       <use xlink:href="#DejaVuSans-69" transform="translate(1081.234375 0)"/>
       <use xlink:href="#DejaVuSans-61" transform="translate(1109.017578 0)"/>
       <use xlink:href="#DejaVuSans-6c" transform="translate(1170.296875 0)"/>
      </g>
     </g>
    </g>
    <g id="xtick_5">
     <g id="line2d_5">
      <path d="M 301.2607 352.703957 
L 193.528237 576.412722 
" clip-path="url(#p872ad9a2ec)" style="fill: none; stroke: #b0b0b0; stroke-width: 0.8; stroke-linecap: square"/>
     </g>
     <g id="text_5">
      <!-- Biodiversity Impact -->
      <g transform="translate(129.459177 592.337536) scale(0.12 -0.12)">
       <defs>
        <path id="DejaVuSans-42" d="M 1259 2228 
L 1259 519 
L 2272 519 
Q 2781 519 3026 730 
Q 3272 941 3272 1375 
Q 3272 1813 3026 2020 
Q 2781 2228 2272 2228 
L 1259 2228 
z
M 1259 4147 
L 1259 2741 
L 2194 2741 
Q 2656 2741 2882 2914 
Q 3109 3088 3109 3444 
Q 3109 3797 2882 3972 
Q 2656 4147 2194 4147 
L 1259 4147 
z
M 628 4666 
L 2241 4666 
Q 2963 4666 3353 4366 
Q 3744 4066 3744 3513 
Q 3744 3084 3544 2831 
Q 3344 2578 2956 2516 
Q 3422 2416 3680 2098 
Q 3938 1781 3938 1306 
Q 3938 681 3513 340 
Q 3088 0 2303 0 
L 628 0 
L 628 4666 
z
" transform="scale(0.015625)"/>
        <path id="DejaVuSans-76" d="M 191 3500 
L 800 3500 
L 1894 563 
L 2988 3500 
L 3597 3500 
L 2284 0 
L 1503 0 
L 191 3500 
z
" transform="scale(0.015625)"/>
        <path id="DejaVuSans-49" d="M 628 4666 
L 1259 4666 
L 1259 0 
L 628 0 
L 628 4666 
z
" transform="scale(0.015625)"/>
       </defs>
       <use xlink:href="#DejaVuSans-42"/>
       <use xlink:href="#DejaVuSans-69" transform="translate(68.603516 0)"/>
       <use xlink:href="#DejaVuSans-6f" transform="translate(96.386719 0)"/>
       <use xlink:href="#DejaVuSans-64" transform="translate(157.568359 0)"/>
       <use xlink:href="#DejaVuSans-69" transform="translate(221.044922 0)"/>
       <use xlink:href="#DejaVuSans-76" transform="translate(248.828125 0)"/>
       <use xlink:href="#DejaVuSans-65" transform="translate(308.007812 0)"/>
       <use xlink:href="#DejaVuSans-72" transform="translate(369.53125 0)"/>
       <use xlink:href="#DejaVuSans-73" transform="translate(410.644531 0)"/>
       <use xlink:href="#DejaVuSans-69" transform="translate(462.744141 0)"/>
       <use xlink:href="#DejaVuSans-74" transform="translate(490.527344 0)"/>
       <use xlink:href="#DejaVuSans-79" transform="translate(529.736328 0)"/>
       <use xlink:href="#DejaVuSans-20" transform="translate(588.916016 0)"/>
       <use xlink:href="#DejaVuSans-49" transform="translate(620.703125 0)"/>
       <use xlink:href="#DejaVuSans-6d" transform="translate(650.195312 0)"/>
       <use xlink:href="#DejaVuSans-70" transform="translate(747.607422 0)"/>
       <use xlink:href="#DejaVuSans-61" transform="translate(811.083984 0)"/>
       <use xlink:href="#DejaVuSans-63" transform="translate(872.363281 0)"/>
       <use xlink:href="#DejaVuSans-74" transform="translate(927.34375 0)"/>
      </g>
     </g>
    </g>
    <g id="xtick_6">
     <g id="line2d_6">
      <path d="M 301.2607 352.703957 
L 59.188053 407.955459 
" clip-path="url(#p872ad9a2ec)" style="fill: none; stroke: #b0b0b0; stroke-width: 0.8; stroke-linecap: square"/>
     </g>
     <g id="text_6">
      <!-- Water Usage -->
      <g transform="translate(7.2 414.382002) scale(0.12 -0.12)">
       <defs>
        <path id="DejaVuSans-67" d="M 2906 1791 
Q 2906 2416 2648 2759 
Q 2391 3103 1925 3103 
Q 1463 3103 1205 2759 
Q 947 2416 947 1791 
Q 947 1169 1205 825 
Q 1463 481 1925 481 
Q 2391 481 2648 825 
Q 2906 1169 2906 1791 
z
M 3481 434 
Q 3481 -459 3084 -895 
Q 2688 -1331 1869 -1331 
Q 1566 -1331 1297 -1286 
Q 1028 -1241 775 -1147 
L 775 -588 
Q 1028 -725 1275 -790 
Q 1522 -856 1778 -856 
Q 2344 -856 2625 -561 
Q 2906 -266 2906 331 
L 2906 616 
Q 2728 306 2450 153 
Q 2172 0 1784 0 
Q 1141 0 747 490 
Q 353 981 353 1791 
Q 353 2603 747 3093 
Q 1141 3584 1784 3584 
Q 2172 3584 2450 3431 
Q 2728 3278 2906 2969 
L 2906 3500 
L 3481 3500 
L 3481 434 
z
" transform="scale(0.015625)"/>
       </defs>
       <use xlink:href="#DejaVuSans-57"/>
       <use xlink:href="#DejaVuSans-61" transform="translate(92.501953 0)"/>
       <use xlink:href="#DejaVuSans-74" transform="translate(153.78125 0)"/>
       <use xlink:href="#DejaVuSans-65" transform="translate(192.990234 0)"/>
       <use xlink:href="#DejaVuSans-72" transform="translate(254.513672 0)"/>
       <use xlink:href="#DejaVuSans-20" transform="translate(295.626953 0)"/>
       <use xlink:href="#DejaVuSans-55" transform="translate(327.414062 0)"/>
       <use xlink:href="#DejaVuSans-73" transform="translate(400.607422 0)"/>
       <use xlink:href="#DejaVuSans-61" transform="translate(452.707031 0)"/>
       <use xlink:href="#DejaVuSans-67" transform="translate(513.986328 0)"/>
       <use xlink:href="#DejaVuSans-65" transform="translate(577.462891 0)"/>
      </g>
     </g>
    </g>
    <g id="xtick_7">
     <g id="line2d_7">
      <path d="M 301.2607 352.703957 
L 107.13351 197.892689 
" clip-path="url(#p872ad9a2ec)" style="fill: none; stroke: #b0b0b0; stroke-width: 0.8; stroke-linecap: square"/>
     </g>
     <g id="text_7">
      <!-- Acidification Potential -->
      <g transform="translate(31.310994 192.475082) scale(0.12 -0.12)">
       <defs>
        <path id="DejaVuSans-41" d="M 2188 4044 
L 1331 1722 
L 3047 1722 
L 2188 4044 
z
M 1831 4666 
L 2547 4666 
L 4325 0 
L 3669 0 
L 3244 1197 
L 1141 1197 
L 716 0 
L 50 0 
L 1831 4666 
z
" transform="scale(0.015625)"/>
        <path id="DejaVuSans-66" d="M 2375 4863 
L 2375 4384 
L 1825 4384 
Q 1516 4384 1395 4259 
Q 1275 4134 1275 3809 
L 1275 3500 
L 2222 3500 
L 2222 3053 
L 1275 3053 
L 1275 0 
L 697 0 
L 697 3053 
L 147 3053 
L 147 3500 
L 697 3500 
L 697 3744 
Q 697 4328 969 4595 
Q 1241 4863 1831 4863 
L 2375 4863 
z
" transform="scale(0.015625)"/>
       </defs>
       <use xlink:href="#DejaVuSans-41"/>
       <use xlink:href="#DejaVuSans-63" transform="translate(66.658203 0)"/>
       <use xlink:href="#DejaVuSans-69" transform="translate(121.638672 0)"/>
       <use xlink:href="#DejaVuSans-64" transform="translate(149.421875 0)"/>
       <use xlink:href="#DejaVuSans-69" transform="translate(212.898438 0)"/>
       <use xlink:href="#DejaVuSans-66" transform="translate(240.681641 0)"/>
       <use xlink:href="#DejaVuSans-69" transform="translate(275.886719 0)"/>
       <use xlink:href="#DejaVuSans-63" transform="translate(303.669922 0)"/>
       <use xlink:href="#DejaVuSans-61" transform="translate(358.650391 0)"/>
       <use xlink:href="#DejaVuSans-74" transform="translate(419.929688 0)"/>
       <use xlink:href="#DejaVuSans-69" transform="translate(459.138672 0)"/>
       <use xlink:href="#DejaVuSans-6f" transform="translate(486.921875 0)"/>
       <use xlink:href="#DejaVuSans-6e" transform="translate(548.103516 0)"/>
       <use xlink:href="#DejaVuSans-20" transform="translate(611.482422 0)"/>
       <use xlink:href="#DejaVuSans-50" transform="translate(643.269531 0)"/>
       <use xlink:href="#DejaVuSans-6f" transform="translate(699.947266 0)"/>
       <use xlink:href="#DejaVuSans-74" transform="translate(761.128906 0)"/>
       <use xlink:href="#DejaVuSans-65" transform="translate(800.337891 0)"/>
       <use xlink:href="#DejaVuSans-6e" transform="translate(861.861328 0)"/>
       <use xlink:href="#DejaVuSans-74" transform="translate(925.240234 0)"/>
       <use xlink:href="#DejaVuSans-69" transform="translate(964.449219 0)"/>
       <use xlink:href="#DejaVuSans-61" transform="translate(992.232422 0)"/>
       <use xlink:href="#DejaVuSans-6c" transform="translate(1053.511719 0)"/>
      </g>
     </g>
    </g>
   </g>
   <g id="matplotlib.axis_2">
    <g id="ytick_1">
     <g id="line2d_8">
      <path d="M 301.2607 303.044358 
C 307.781939 303.044358 314.239767 304.3289 320.264606 306.82447 
C 326.289445 309.32004 331.764127 312.978106 336.375339 317.589318 
C 340.986552 322.20053 344.644617 327.675212 347.140187 333.700051 
C 349.635757 339.72489 350.920299 346.182718 350.920299 352.703957 
C 350.920299 359.225196 349.635757 365.683024 347.140187 371.707863 
C 344.644617 377.732702 340.986552 383.207384 336.375339 387.818597 
C 331.764127 392.429809 326.289445 396.087875 320.264606 398.583445 
C 314.239767 401.079015 307.781939 402.363556 301.2607 402.363556 
C 294.739461 402.363556 288.281633 401.079015 282.256794 398.583445 
C 276.231955 396.087875 270.757273 392.429809 266.146061 387.818597 
C 261.534849 383.207384 257.876783 377.732702 255.381213 371.707863 
C 252.885643 365.683024 251.601101 359.225196 251.601101 352.703957 
C 251.601101 346.182718 252.885643 339.72489 255.381213 333.700051 
C 257.876783 327.675212 261.534849 322.20053 266.146061 317.589318 
C 270.757273 312.978106 276.231955 309.32004 282.256794 306.82447 
C 288.281633 304.3289 294.739461 303.044358 301.2607 303.044358 
" clip-path="url(#p872ad9a2ec)" style="fill: none; stroke: #b0b0b0; stroke-width: 0.8; stroke-linecap: square"/>
     </g>
     <g id="text_8">
      <!-- 0.2 -->
      <g transform="translate(301.2607 300.964671) scale(0.1 -0.1)">
       <defs>
        <path id="DejaVuSans-30" d="M 2034 4250 
Q 1547 4250 1301 3770 
Q 1056 3291 1056 2328 
Q 1056 1369 1301 889 
Q 1547 409 2034 409 
Q 2525 409 2770 889 
Q 3016 1369 3016 2328 
Q 3016 3291 2770 3770 
Q 2525 4250 2034 4250 
z
M 2034 4750 
Q 2819 4750 3233 4129 
Q 3647 3509 3647 2328 
Q 3647 1150 3233 529 
Q 2819 -91 2034 -91 
Q 1250 -91 836 529 
Q 422 1150 422 2328 
Q 422 3509 836 4129 
Q 1250 4750 2034 4750 
z
" transform="scale(0.015625)"/>
        <path id="DejaVuSans-2e" d="M 684 794 
L 1344 794 
L 1344 0 
L 684 0 
L 684 794 
z
" transform="scale(0.015625)"/>
        <path id="DejaVuSans-32" d="M 1228 531 
L 3431 531 
L 3431 0 
L 469 0 
L 469 531 
Q 828 903 1448 1529 
Q 2069 2156 2228 2338 
Q 2531 2678 2651 2914 
Q 2772 3150 2772 3378 
Q 2772 3750 2511 3984 
Q 2250 4219 1831 4219 
Q 1534 4219 1204 4116 
Q 875 4013 500 3803 
L 500 4441 
Q 881 4594 1212 4672 
Q 1544 4750 1819 4750 
Q 2544 4750 2975 4387 
Q 3406 4025 3406 3419 
Q 3406 3131 3298 2873 
Q 3191 2616 2906 2266 
Q 2828 2175 2409 1742 
Q 1991 1309 1228 531 
z
" transform="scale(0.015625)"/>
       </defs>
       <use xlink:href="#DejaVuSans-30"/>
       <use xlink:href="#DejaVuSans-2e" transform="translate(63.623047 0)"/>
       <use xlink:href="#DejaVuSans-32" transform="translate(95.410156 0)"/>
      </g>
     </g>
    </g>
    <g id="ytick_2">
     <g id="line2d_9">
      <path d="M 301.2607 253.384759 
C 314.303178 253.384759 327.218834 255.953843 339.268512 260.944983 
C 351.31819 265.936123 362.267554 273.252254 371.489979 282.474679 
C 380.712403 291.697103 388.028535 302.646467 393.019675 314.696146 
C 398.010815 326.745824 400.579898 339.66148 400.579898 352.703957 
C 400.579898 365.746435 398.010815 378.662091 393.019675 390.711769 
C 388.028535 402.761447 380.712403 413.710812 371.489979 422.933236 
C 362.267554 432.15566 351.31819 439.471792 339.268512 444.462932 
C 327.218834 449.454072 314.303178 452.023156 301.2607 452.023156 
C 288.218222 452.023156 275.302566 449.454072 263.252888 444.462932 
C 251.20321 439.471792 240.253846 432.15566 231.031421 422.933236 
C 221.808997 413.710812 214.492866 402.761447 209.501726 390.711769 
C 204.510585 378.662091 201.941502 365.746435 201.941502 352.703957 
C 201.941502 339.66148 204.510585 326.745824 209.501726 314.696146 
C 214.492866 302.646467 221.808997 291.697103 231.031421 282.474679 
C 240.253846 273.252254 251.20321 265.936123 263.252888 260.944983 
C 275.302566 255.953843 288.218222 253.384759 301.2607 253.384759 
" clip-path="url(#p872ad9a2ec)" style="fill: none; stroke: #b0b0b0; stroke-width: 0.8; stroke-linecap: square"/>
     </g>
     <g id="text_9">
      <!-- 0.4 -->
      <g transform="translate(301.2607 251.305071) scale(0.1 -0.1)">
       <defs>
        <path id="DejaVuSans-34" d="M 2419 4116 
L 825 1625 
L 2419 1625 
L 2419 4116 
z
M 2253 4666 
L 3047 4666 
L 3047 1625 
L 3713 1625 
L 3713 1100 
L 3047 1100 
L 3047 0 
L 2419 0 
L 2419 1100 
L 313 1100 
L 313 1709 
L 2253 4666 
z
" transform="scale(0.015625)"/>
       </defs>
       <use xlink:href="#DejaVuSans-30"/>
       <use xlink:href="#DejaVuSans-2e" transform="translate(63.623047 0)"/>
       <use xlink:href="#DejaVuSans-34" transform="translate(95.410156 0)"/>
      </g>
     </g>
    </g>
    <g id="ytick_3">
     <g id="line2d_10">
      <path d="M 301.2607 203.72516 
C 320.824417 203.72516 340.197901 207.578785 358.272418 215.065495 
C 376.346935 222.552206 392.770982 233.526403 406.604618 247.360039 
C 420.438255 261.193676 431.412452 277.617722 438.899162 295.69224 
C 446.385872 313.766757 450.239498 333.140241 450.239498 352.703957 
C 450.239498 372.267674 446.385872 391.641158 438.899162 409.715675 
C 431.412452 427.790192 420.438255 444.214239 406.604618 458.047875 
C 392.770982 471.881512 376.346935 482.855709 358.272418 490.342419 
C 340.197901 497.829129 320.824417 501.682755 301.2607 501.682755 
C 281.696984 501.682755 262.3235 497.829129 244.248982 490.342419 
C 226.174465 482.855709 209.750419 471.881512 195.916782 458.047875 
C 182.083145 444.214239 171.108948 427.790192 163.622238 409.715675 
C 156.135528 391.641158 152.281903 372.267674 152.281903 352.703957 
C 152.281903 333.140241 156.135528 313.766757 163.622238 295.69224 
C 171.108948 277.617722 182.083145 261.193676 195.916782 247.360039 
C 209.750419 233.526403 226.174465 222.552206 244.248982 215.065495 
C 262.3235 207.578785 281.696984 203.72516 301.2607 203.72516 
" clip-path="url(#p872ad9a2ec)" style="fill: none; stroke: #b0b0b0; stroke-width: 0.8; stroke-linecap: square"/>
     </g>
     <g id="text_10">
      <!-- 0.6 -->
      <g transform="translate(301.2607 201.645472) scale(0.1 -0.1)">
       <defs>
        <path id="DejaVuSans-36" d="M 2113 2584 
Q 1688 2584 1439 2293 
Q 1191 2003 1191 1497 
Q 1191 994 1439 701 
Q 1688 409 2113 409 
Q 2538 409 2786 701 
Q 3034 994 3034 1497 
Q 3034 2003 2786 2293 
Q 2538 2584 2113 2584 
z
M 3366 4563 
L 3366 3988 
Q 3128 4100 2886 4159 
Q 2644 4219 2406 4219 
Q 1781 4219 1451 3797 
Q 1122 3375 1075 2522 
Q 1259 2794 1537 2939 
Q 1816 3084 2150 3084 
Q 2853 3084 3261 2657 
Q 3669 2231 3669 1497 
Q 3669 778 3244 343 
Q 2819 -91 2113 -91 
Q 1303 -91 875 529 
Q 447 1150 447 2328 
Q 447 3434 972 4092 
Q 1497 4750 2381 4750 
Q 2619 4750 2861 4703 
Q 3103 4656 3366 4563 
z
" transform="scale(0.015625)"/>
       </defs>
       <use xlink:href="#DejaVuSans-30"/>
       <use xlink:href="#DejaVuSans-2e" transform="translate(63.623047 0)"/>
       <use xlink:href="#DejaVuSans-36" transform="translate(95.410156 0)"/>
      </g>
     </g>
    </g>
    <g id="ytick_4">
     <g id="line2d_11">
      <path d="M 301.2607 154.06556 
C 327.345655 154.06556 353.176967 159.203728 377.276324 169.186008 
C 401.37568 179.168288 423.274409 193.800551 441.719257 212.2454 
C 460.164106 230.690249 474.796369 252.588978 484.778649 276.688334 
C 494.760929 300.78769 499.899097 326.619002 499.899097 352.703957 
C 499.899097 378.788913 494.760929 404.620224 484.778649 428.719581 
C 474.796369 452.818937 460.164106 474.717666 441.719257 493.162515 
C 423.274409 511.607363 401.37568 526.239626 377.276324 536.221906 
C 353.176967 546.204187 327.345655 551.342354 301.2607 551.342354 
C 275.175745 551.342354 249.344433 546.204187 225.245077 536.221906 
C 201.14572 526.239626 179.246991 511.607363 160.802143 493.162515 
C 142.357294 474.717666 127.725031 452.818937 117.742751 428.719581 
C 107.760471 404.620224 102.622303 378.788913 102.622303 352.703957 
C 102.622303 326.619002 107.760471 300.78769 117.742751 276.688334 
C 127.725031 252.588978 142.357294 230.690249 160.802143 212.2454 
C 179.246991 193.800551 201.14572 179.168288 225.245077 169.186008 
C 249.344433 159.203728 275.175745 154.06556 301.2607 154.06556 
" clip-path="url(#p872ad9a2ec)" style="fill: none; stroke: #b0b0b0; stroke-width: 0.8; stroke-linecap: square"/>
     </g>
     <g id="text_11">
      <!-- 0.8 -->
      <g transform="translate(301.2607 151.985873) scale(0.1 -0.1)">
       <defs>
        <path id="DejaVuSans-38" d="M 2034 2216 
Q 1584 2216 1326 1975 
Q 1069 1734 1069 1313 
Q 1069 891 1326 650 
Q 1584 409 2034 409 
Q 2484 409 2743 651 
Q 3003 894 3003 1313 
Q 3003 1734 2745 1975 
Q 2488 2216 2034 2216 
z
M 1403 2484 
Q 997 2584 770 2862 
Q 544 3141 544 3541 
Q 544 4100 942 4425 
Q 1341 4750 2034 4750 
Q 2731 4750 3128 4425 
Q 3525 4100 3525 3541 
Q 3525 3141 3298 2862 
Q 3072 2584 2669 2484 
Q 3125 2378 3379 2068 
Q 3634 1759 3634 1313 
Q 3634 634 3220 271 
Q 2806 -91 2034 -91 
Q 1263 -91 848 271 
Q 434 634 434 1313 
Q 434 1759 690 2068 
Q 947 2378 1403 2484 
z
M 1172 3481 
Q 1172 3119 1398 2916 
Q 1625 2713 2034 2713 
Q 2441 2713 2670 2916 
Q 2900 3119 2900 3481 
Q 2900 3844 2670 4047 
Q 2441 4250 2034 4250 
Q 1625 4250 1398 4047 
Q 1172 3844 1172 3481 
z
" transform="scale(0.015625)"/>
       </defs>
       <use xlink:href="#DejaVuSans-30"/>
       <use xlink:href="#DejaVuSans-2e" transform="translate(63.623047 0)"/>
       <use xlink:href="#DejaVuSans-38" transform="translate(95.410156 0)"/>
      </g>
     </g>
    </g>
   </g>
   <g id="line2d_12">
    <path d="M 301.2607 352.703957 
L 301.2607 352.703957 
L 301.2607 352.703957 
L 301.2607 352.703957 
L 301.2607 352.703957 
L 301.2607 352.703957 
L 301.2607 352.703957 
L 301.2607 352.703957 
" clip-path="url(#p872ad9a2ec)" style="fill: none; stroke: #4e9231; stroke-width: 2.5; stroke-linecap: square"/>
   </g>
   <g id="line2d_13">
    <path d="M 301.2607 268.895942 
L 337.968718 323.43029 
L 362.804971 366.751035 
L 334.502451 421.731164 
L 236.419872 487.347325 
L 233.066279 368.268889 
L 221.130701 288.802415 
L 301.2607 268.895942 
" clip-path="url(#p872ad9a2ec)" style="fill: none; stroke: #246068; stroke-width: 2.5; stroke-linecap: square"/>
   </g>
   <g id="line2d_14">
    <path d="M 301.2607 241.853879 
L 343.590875 318.94677 
L 474.193832 392.174816 
L 354.557574 463.376057 
L 234.153081 492.054365 
L 102.011698 398.181242 
L 201.725163 273.327015 
L 301.2607 241.853879 
" clip-path="url(#p872ad9a2ec)" style="fill: none; stroke: #aa7339; stroke-width: 2.5; stroke-linecap: square"/>
   </g>
   <g id="line2d_15">
    <path d="M 301.2607 104.405961 
L 495.38789 197.892689 
L 543.333347 407.955459 
L 408.993163 576.412722 
L 193.528237 576.412722 
L 59.188053 407.955459 
L 107.13351 197.892689 
L 301.2607 104.405961 
" clip-path="url(#p872ad9a2ec)" style="fill: none; stroke: #aa3c39; stroke-width: 2.5; stroke-linecap: square"/>
   </g>
   <g id="patch_7">
    <path d="M 301.2607 104.405961 
C 268.654506 104.405961 236.365366 110.828671 206.241171 123.306521 
C 176.116975 135.784371 148.743564 154.0747 125.687503 177.130761 
C 102.631442 200.186822 84.341114 227.560233 71.863264 257.684428 
C 59.385413 287.808623 52.962704 320.097763 52.962704 352.703957 
C 52.962704 385.310151 59.385413 417.599291 71.863264 447.723487 
C 84.341114 477.847682 102.631442 505.221093 125.687503 528.277154 
C 148.743564 551.333215 176.116975 569.623543 206.241171 582.101394 
C 236.365366 594.579244 268.654506 601.001953 301.2607 601.001953 
C 333.866894 601.001953 366.156034 594.579244 396.280229 582.101394 
C 426.404425 569.623543 453.777836 551.333215 476.833897 528.277154 
C 499.889958 505.221093 518.180286 477.847682 530.658137 447.723487 
C 543.135987 417.599291 549.558696 385.310151 549.558696 352.703957 
C 549.558696 320.097763 543.135987 287.808623 530.658137 257.684428 
C 518.180286 227.560233 499.889958 200.186822 476.833897 177.130761 
C 453.777836 154.0747 426.404425 135.784371 396.280229 123.306521 
C 366.156034 110.828671 333.866894 104.405961 301.2607 104.405961 
" style="fill: none; stroke: #000000; stroke-width: 0.8; stroke-linejoin: miter; stroke-linecap: square"/>
   </g>
   <g id="text_12">
    <!-- Environmental Impact by Diet Group -->
    <g transform="translate(99.620388 23.916562) scale(0.22 -0.22)">
     <defs>
      <path id="DejaVuSans-62" d="M 3116 1747 
Q 3116 2381 2855 2742 
Q 2594 3103 2138 3103 
Q 1681 3103 1420 2742 
Q 1159 2381 1159 1747 
Q 1159 1113 1420 752 
Q 1681 391 2138 391 
Q 2594 391 2855 752 
Q 3116 1113 3116 1747 
z
M 1159 2969 
Q 1341 3281 1617 3432 
Q 1894 3584 2278 3584 
Q 2916 3584 3314 3078 
Q 3713 2572 3713 1747 
Q 3713 922 3314 415 
Q 2916 -91 2278 -91 
Q 1894 -91 1617 61 
Q 1341 213 1159 525 
L 1159 0 
L 581 0 
L 581 4863 
L 1159 4863 
L 1159 2969 
z
" transform="scale(0.015625)"/>
      <path id="DejaVuSans-44" d="M 1259 4147 
L 1259 519 
L 2022 519 
Q 2988 519 3436 956 
Q 3884 1394 3884 2338 
Q 3884 3275 3436 3711 
Q 2988 4147 2022 4147 
L 1259 4147 
z
M 628 4666 
L 1925 4666 
Q 3281 4666 3915 4102 
Q 4550 3538 4550 2338 
Q 4550 1131 3912 565 
Q 3275 0 1925 0 
L 628 0 
L 628 4666 
z
" transform="scale(0.015625)"/>
     </defs>
     <use xlink:href="#DejaVuSans-45"/>
     <use xlink:href="#DejaVuSans-6e" transform="translate(63.183594 0)"/>
     <use xlink:href="#DejaVuSans-76" transform="translate(126.5625 0)"/>
     <use xlink:href="#DejaVuSans-69" transform="translate(185.742188 0)"/>
     <use xlink:href="#DejaVuSans-72" transform="translate(213.525391 0)"/>
     <use xlink:href="#DejaVuSans-6f" transform="translate(252.388672 0)"/>
     <use xlink:href="#DejaVuSans-6e" transform="translate(313.570312 0)"/>
     <use xlink:href="#DejaVuSans-6d" transform="translate(376.949219 0)"/>
     <use xlink:href="#DejaVuSans-65" transform="translate(474.361328 0)"/>
     <use xlink:href="#DejaVuSans-6e" transform="translate(535.884766 0)"/>
     <use xlink:href="#DejaVuSans-74" transform="translate(599.263672 0)"/>
     <use xlink:href="#DejaVuSans-61" transform="translate(638.472656 0)"/>
     <use xlink:href="#DejaVuSans-6c" transform="translate(699.751953 0)"/>
     <use xlink:href="#DejaVuSans-20" transform="translate(727.535156 0)"/>
     <use xlink:href="#DejaVuSans-49" transform="translate(759.322266 0)"/>
     <use xlink:href="#DejaVuSans-6d" transform="translate(788.814453 0)"/>
     <use xlink:href="#DejaVuSans-70" transform="translate(886.226562 0)"/>
     <use xlink:href="#DejaVuSans-61" transform="translate(949.703125 0)"/>
     <use xlink:href="#DejaVuSans-63" transform="translate(1010.982422 0)"/>
     <use xlink:href="#DejaVuSans-74" transform="translate(1065.962891 0)"/>
     <use xlink:href="#DejaVuSans-20" transform="translate(1105.171875 0)"/>
     <use xlink:href="#DejaVuSans-62" transform="translate(1136.958984 0)"/>
     <use xlink:href="#DejaVuSans-79" transform="translate(1200.435547 0)"/>
     <use xlink:href="#DejaVuSans-20" transform="translate(1259.615234 0)"/>
     <use xlink:href="#DejaVuSans-44" transform="translate(1291.402344 0)"/>
     <use xlink:href="#DejaVuSans-69" transform="translate(1368.404297 0)"/>
     <use xlink:href="#DejaVuSans-65" transform="translate(1396.1875 0)"/>
     <use xlink:href="#DejaVuSans-74" transform="translate(1457.710938 0)"/>
     <use xlink:href="#DejaVuSans-20" transform="translate(1496.919922 0)"/>
     <use xlink:href="#DejaVuSans-47" transform="translate(1528.707031 0)"/>
     <use xlink:href="#DejaVuSans-72" transform="translate(1606.197266 0)"/>
     <use xlink:href="#DejaVuSans-6f" transform="translate(1645.060547 0)"/>
     <use xlink:href="#DejaVuSans-75" transform="translate(1706.242188 0)"/>
     <use xlink:href="#DejaVuSans-70" transform="translate(1769.621094 0)"/>
    </g>
   </g>
   <g id="legend_1">
    <g id="patch_8">
     <path d="M 585.853744 153.382925 
L 690.137494 153.382925 
Q 692.537494 153.382925 692.537494 150.982925 
L 692.537494 63.146362 
Q 692.537494 60.746362 690.137494 60.746362 
L 585.853744 60.746362 
Q 583.453744 60.746362 583.453744 63.146362 
L 583.453744 150.982925 
Q 583.453744 153.382925 585.853744 153.382925 
z
" style="fill: #ffffff; opacity: 0.8; stroke: #cccccc; stroke-linejoin: miter"/>
    </g>
    <g id="text_13">
     <!-- Diet Group -->
     <g transform="translate(602.785931 75.424331) scale(0.13 -0.13)">
      <use xlink:href="#DejaVuSans-44"/>
      <use xlink:href="#DejaVuSans-69" transform="translate(77.001953 0)"/>
      <use xlink:href="#DejaVuSans-65" transform="translate(104.785156 0)"/>
      <use xlink:href="#DejaVuSans-74" transform="translate(166.308594 0)"/>
      <use xlink:href="#DejaVuSans-20" transform="translate(205.517578 0)"/>
      <use xlink:href="#DejaVuSans-47" transform="translate(237.304688 0)"/>
      <use xlink:href="#DejaVuSans-72" transform="translate(314.794922 0)"/>
      <use xlink:href="#DejaVuSans-6f" transform="translate(353.658203 0)"/>
      <use xlink:href="#DejaVuSans-75" transform="translate(414.839844 0)"/>
      <use xlink:href="#DejaVuSans-70" transform="translate(478.21875 0)"/>
     </g>
    </g>
    <g id="line2d_16">
     <path d="M 588.253744 89.04605 
L 600.253744 89.04605 
L 612.253744 89.04605 
" style="fill: none; stroke: #4e9231; stroke-width: 2.5; stroke-linecap: square"/>
    </g>
    <g id="text_14">
     <!-- Vegan -->
     <g style="fill: #4e9231" transform="translate(621.853744 93.24605) scale(0.12 -0.12)">
      <defs>
       <path id="DejaVuSans-56" d="M 1831 0 
L 50 4666 
L 709 4666 
L 2188 738 
L 3669 4666 
L 4325 4666 
L 2547 0 
L 1831 0 
z
" transform="scale(0.015625)"/>
      </defs>
      <use xlink:href="#DejaVuSans-56"/>
      <use xlink:href="#DejaVuSans-65" transform="translate(60.658203 0)"/>
      <use xlink:href="#DejaVuSans-67" transform="translate(122.181641 0)"/>
      <use xlink:href="#DejaVuSans-61" transform="translate(185.658203 0)"/>
      <use xlink:href="#DejaVuSans-6e" transform="translate(246.9375 0)"/>
     </g>
    </g>
    <g id="line2d_17">
     <path d="M 588.253744 106.6598 
L 600.253744 106.6598 
L 612.253744 106.6598 
" style="fill: none; stroke: #246068; stroke-width: 2.5; stroke-linecap: square"/>
    </g>
    <g id="text_15">
     <!-- Vegetarian -->
     <g style="fill: #246068" transform="translate(621.853744 110.8598) scale(0.12 -0.12)">
      <use xlink:href="#DejaVuSans-56"/>
      <use xlink:href="#DejaVuSans-65" transform="translate(60.658203 0)"/>
      <use xlink:href="#DejaVuSans-67" transform="translate(122.181641 0)"/>
      <use xlink:href="#DejaVuSans-65" transform="translate(185.658203 0)"/>
      <use xlink:href="#DejaVuSans-74" transform="translate(247.181641 0)"/>
      <use xlink:href="#DejaVuSans-61" transform="translate(286.390625 0)"/>
      <use xlink:href="#DejaVuSans-72" transform="translate(347.669922 0)"/>
      <use xlink:href="#DejaVuSans-69" transform="translate(388.783203 0)"/>
      <use xlink:href="#DejaVuSans-61" transform="translate(416.566406 0)"/>
      <use xlink:href="#DejaVuSans-6e" transform="translate(477.845703 0)"/>
     </g>
    </g>
    <g id="line2d_18">
     <path d="M 588.253744 124.27355 
L 600.253744 124.27355 
L 612.253744 124.27355 
" style="fill: none; stroke: #aa7339; stroke-width: 2.5; stroke-linecap: square"/>
    </g>
    <g id="text_16">
     <!-- Fish-eater -->
     <g style="fill: #aa7339" transform="translate(621.853744 128.47355) scale(0.12 -0.12)">
      <defs>
       <path id="DejaVuSans-46" d="M 628 4666 
L 3309 4666 
L 3309 4134 
L 1259 4134 
L 1259 2759 
L 3109 2759 
L 3109 2228 
L 1259 2228 
L 1259 0 
L 628 0 
L 628 4666 
z
" transform="scale(0.015625)"/>
       <path id="DejaVuSans-2d" d="M 313 2009 
L 1997 2009 
L 1997 1497 
L 313 1497 
L 313 2009 
z
" transform="scale(0.015625)"/>
      </defs>
      <use xlink:href="#DejaVuSans-46"/>
      <use xlink:href="#DejaVuSans-69" transform="translate(50.269531 0)"/>
      <use xlink:href="#DejaVuSans-73" transform="translate(78.052734 0)"/>
      <use xlink:href="#DejaVuSans-68" transform="translate(130.152344 0)"/>
      <use xlink:href="#DejaVuSans-2d" transform="translate(193.53125 0)"/>
      <use xlink:href="#DejaVuSans-65" transform="translate(229.615234 0)"/>
      <use xlink:href="#DejaVuSans-61" transform="translate(291.138672 0)"/>
      <use xlink:href="#DejaVuSans-74" transform="translate(352.417969 0)"/>
      <use xlink:href="#DejaVuSans-65" transform="translate(391.626953 0)"/>
      <use xlink:href="#DejaVuSans-72" transform="translate(453.150391 0)"/>
     </g>
    </g>
    <g id="line2d_19">
     <path d="M 588.253744 141.8873 
L 600.253744 141.8873 
L 612.253744 141.8873 
" style="fill: none; stroke: #aa3c39; stroke-width: 2.5; stroke-linecap: square"/>
    </g>
    <g id="text_17">
     <!-- Meat-eater -->
     <g style="fill: #aa3c39" transform="translate(621.853744 146.0873) scale(0.12 -0.12)">
      <defs>
       <path id="DejaVuSans-4d" d="M 628 4666 
L 1569 4666 
L 2759 1491 
L 3956 4666 
L 4897 4666 
L 4897 0 
L 4281 0 
L 4281 4097 
L 3078 897 
L 2444 897 
L 1241 4097 
L 1241 0 
L 628 0 
L 628 4666 
z
" transform="scale(0.015625)"/>
      </defs>
      <use xlink:href="#DejaVuSans-4d"/>
      <use xlink:href="#DejaVuSans-65" transform="translate(86.279297 0)"/>
      <use xlink:href="#DejaVuSans-61" transform="translate(147.802734 0)"/>
      <use xlink:href="#DejaVuSans-74" transform="translate(209.082031 0)"/>
      <use xlink:href="#DejaVuSans-2d" transform="translate(248.291016 0)"/>
      <use xlink:href="#DejaVuSans-65" transform="translate(284.375 0)"/>
      <use xlink:href="#DejaVuSans-61" transform="translate(345.898438 0)"/>
      <use xlink:href="#DejaVuSans-74" transform="translate(407.177734 0)"/>
      <use xlink:href="#DejaVuSans-65" transform="translate(446.386719 0)"/>
      <use xlink:href="#DejaVuSans-72" transform="translate(507.910156 0)"/>
     </g>
    </g>
   </g>
   <g id="PathCollection_1">
    <defs>
     <path id="m8d984349c5" d="M 0 3.872983 
C 1.027127 3.872983 2.012324 3.464901 2.738613 2.738613 
C 3.464901 2.012324 3.872983 1.027127 3.872983 0 
C 3.872983 -1.027127 3.464901 -2.012324 2.738613 -2.738613 
C 2.012324 -3.464901 1.027127 -3.872983 0 -3.872983 
C -1.027127 -3.872983 -2.012324 -3.464901 -2.738613 -2.738613 
C -3.464901 -2.012324 -3.872983 -1.027127 -3.872983 0 
C -3.872983 1.027127 -3.464901 2.012324 -2.738613 2.738613 
C -2.012324 3.464901 -1.027127 3.872983 0 3.872983 
z
" style="stroke: #000000"/>
    </defs>
    <g clip-path="url(#p872ad9a2ec)">
     <use xlink:href="#m8d984349c5" x="301.2607" y="352.703957" style="fill: #4e9231; stroke: #000000"/>
     <use xlink:href="#m8d984349c5" x="301.2607" y="352.703957" style="fill: #4e9231; stroke: #000000"/>
     <use xlink:href="#m8d984349c5" x="301.2607" y="352.703957" style="fill: #4e9231; stroke: #000000"/>
     <use xlink:href="#m8d984349c5" x="301.2607" y="352.703957" style="fill: #4e9231; stroke: #000000"/>
     <use xlink:href="#m8d984349c5" x="301.2607" y="352.703957" style="fill: #4e9231; stroke: #000000"/>
     <use xlink:href="#m8d984349c5" x="301.2607" y="352.703957" style="fill: #4e9231; stroke: #000000"/>
     <use xlink:href="#m8d984349c5" x="301.2607" y="352.703957" style="fill: #4e9231; stroke: #000000"/>
     <use xlink:href="#m8d984349c5" x="301.2607" y="352.703957" style="fill: #4e9231; stroke: #000000"/>
    </g>
   </g>
   <g id="PathCollection_2">
    <defs>
     <path id="ma9e3fe942e" d="M 0 3.872983 
C 1.027127 3.872983 2.012324 3.464901 2.738613 2.738613 
C 3.464901 2.012324 3.872983 1.027127 3.872983 0 
C 3.872983 -1.027127 3.464901 -2.012324 2.738613 -2.738613 
C 2.012324 -3.464901 1.027127 -3.872983 0 -3.872983 
C -1.027127 -3.872983 -2.012324 -3.464901 -2.738613 -2.738613 
C -3.464901 -2.012324 -3.872983 -1.027127 -3.872983 0 
C -3.872983 1.027127 -3.464901 2.012324 -2.738613 2.738613 
C -2.012324 3.464901 -1.027127 3.872983 0 3.872983 
z
" style="stroke: #000000"/>
    </defs>
    <g clip-path="url(#p872ad9a2ec)">
     <use xlink:href="#ma9e3fe942e" x="301.2607" y="268.895942" style="fill: #246068; stroke: #000000"/>
     <use xlink:href="#ma9e3fe942e" x="337.968718" y="323.43029" style="fill: #246068; stroke: #000000"/>
     <use xlink:href="#ma9e3fe942e" x="362.804971" y="366.751035" style="fill: #246068; stroke: #000000"/>
     <use xlink:href="#ma9e3fe942e" x="334.502451" y="421.731164" style="fill: #246068; stroke: #000000"/>
     <use xlink:href="#ma9e3fe942e" x="236.419872" y="487.347325" style="fill: #246068; stroke: #000000"/>
     <use xlink:href="#ma9e3fe942e" x="233.066279" y="368.268889" style="fill: #246068; stroke: #000000"/>
     <use xlink:href="#ma9e3fe942e" x="221.130701" y="288.802415" style="fill: #246068; stroke: #000000"/>
     <use xlink:href="#ma9e3fe942e" x="301.2607" y="268.895942" style="fill: #246068; stroke: #000000"/>
    </g>
   </g>
   <g id="PathCollection_3">
    <defs>
     <path id="m5deefbc98d" d="M 0 3.872983 
C 1.027127 3.872983 2.012324 3.464901 2.738613 2.738613 
C 3.464901 2.012324 3.872983 1.027127 3.872983 0 
C 3.872983 -1.027127 3.464901 -2.012324 2.738613 -2.738613 
C 2.012324 -3.464901 1.027127 -3.872983 0 -3.872983 
C -1.027127 -3.872983 -2.012324 -3.464901 -2.738613 -2.738613 
C -3.464901 -2.012324 -3.872983 -1.027127 -3.872983 0 
C -3.872983 1.027127 -3.464901 2.012324 -2.738613 2.738613 
C -2.012324 3.464901 -1.027127 3.872983 0 3.872983 
z
" style="stroke: #000000"/>
    </defs>
    <g clip-path="url(#p872ad9a2ec)">
     <use xlink:href="#m5deefbc98d" x="301.2607" y="241.853879" style="fill: #aa7339; stroke: #000000"/>
     <use xlink:href="#m5deefbc98d" x="343.590875" y="318.94677" style="fill: #aa7339; stroke: #000000"/>
     <use xlink:href="#m5deefbc98d" x="474.193832" y="392.174816" style="fill: #aa7339; stroke: #000000"/>
     <use xlink:href="#m5deefbc98d" x="354.557574" y="463.376057" style="fill: #aa7339; stroke: #000000"/>
     <use xlink:href="#m5deefbc98d" x="234.153081" y="492.054365" style="fill: #aa7339; stroke: #000000"/>
     <use xlink:href="#m5deefbc98d" x="102.011698" y="398.181242" style="fill: #aa7339; stroke: #000000"/>
     <use xlink:href="#m5deefbc98d" x="201.725163" y="273.327015" style="fill: #aa7339; stroke: #000000"/>
     <use xlink:href="#m5deefbc98d" x="301.2607" y="241.853879" style="fill: #aa7339; stroke: #000000"/>
    </g>
   </g>
   <g id="PathCollection_4">
    <defs>
     <path id="m00782ca371" d="M 0 3.872983 
C 1.027127 3.872983 2.012324 3.464901 2.738613 2.738613 
C 3.464901 2.012324 3.872983 1.027127 3.872983 0 
C 3.872983 -1.027127 3.464901 -2.012324 2.738613 -2.738613 
C 2.012324 -3.464901 1.027127 -3.872983 0 -3.872983 
C -1.027127 -3.872983 -2.012324 -3.464901 -2.738613 -2.738613 
C -3.464901 -2.012324 -3.872983 -1.027127 -3.872983 0 
C -3.872983 1.027127 -3.464901 2.012324 -2.738613 2.738613 
C -2.012324 3.464901 -1.027127 3.872983 0 3.872983 
z
" style="stroke: #000000"/>
    </defs>
    <g clip-path="url(#p872ad9a2ec)">
     <use xlink:href="#m00782ca371" x="301.2607" y="104.405961" style="fill: #aa3c39; stroke: #000000"/>
     <use xlink:href="#m00782ca371" x="495.38789" y="197.892689" style="fill: #aa3c39; stroke: #000000"/>
     <use xlink:href="#m00782ca371" x="543.333347" y="407.955459" style="fill: #aa3c39; stroke: #000000"/>
     <use xlink:href="#m00782ca371" x="408.993163" y="576.412722" style="fill: #aa3c39; stroke: #000000"/>
     <use xlink:href="#m00782ca371" x="193.528237" y="576.412722" style="fill: #aa3c39; stroke: #000000"/>
     <use xlink:href="#m00782ca371" x="59.188053" y="407.955459" style="fill: #aa3c39; stroke: #000000"/>
     <use xlink:href="#m00782ca371" x="107.13351" y="197.892689" style="fill: #aa3c39; stroke: #000000"/>
     <use xlink:href="#m00782ca371" x="301.2607" y="104.405961" style="fill: #aa3c39; stroke: #000000"/>
    </g>
   </g>
  </g>
 </g>
 <defs>
  <clipPath id="p872ad9a2ec">
   <path d="M 549.558696 352.703957 
C 549.558696 320.097763 543.135987 287.808623 530.658137 257.684428 
C 518.180286 227.560233 499.889958 200.186822 476.833897 177.130761 
C 453.777836 154.0747 426.404425 135.784371 396.280229 123.306521 
C 366.156034 110.828671 333.866894 104.405961 301.2607 104.405961 
C 268.654506 104.405961 236.365366 110.828671 206.241171 123.306521 
C 176.116975 135.784371 148.743564 154.0747 125.687503 177.130761 
C 102.631442 200.186822 84.341114 227.560233 71.863264 257.684428 
C 59.385413 287.808623 52.962704 320.097763 52.962704 352.703957 
C 52.962704 385.310151 59.385413 417.599291 71.863264 447.723487 
C 84.341114 477.847682 102.631442 505.221093 125.687503 528.277154 
C 148.743564 551.333215 176.116975 569.623543 206.241171 582.101394 
C 236.365366 594.579244 268.654506 601.001953 301.2607 601.001953 
C 333.866894 601.001953 366.156034 594.579244 396.280229 582.101394 
C 426.404425 569.623543 453.777836 551.333215 476.833897 528.277154 
C 499.889958 505.221093 518.180286 477.847682 530.658137 447.723487 
C 543.135987 417.599291 549.558696 385.310151 549.558696 352.703957 
M 301.2607 352.703957 
C 301.2607 352.703957 301.2607 352.703957 301.2607 352.703957 
C 301.2607 352.703957 301.2607 352.703957 301.2607 352.703957 
C 301.2607 352.703957 301.2607 352.703957 301.2607 352.703957 
C 301.2607 352.703957 301.2607 352.703957 301.2607 352.703957 
C 301.2607 352.703957 301.2607 352.703957 301.2607 352.703957 
C 301.2607 352.703957 301.2607 352.703957 301.2607 352.703957 
C 301.2607 352.703957 301.2607 352.703957 301.2607 352.703957 
C 301.2607 352.703957 301.2607 352.703957 301.2607 352.703957 
C 301.2607 352.703957 301.2607 352.703957 301.2607 352.703957 
C 301.2607 352.703957 301.2607 352.703957 301.2607 352.703957 
C 301.2607 352.703957 301.2607 352.703957 301.2607 352.703957 
C 301.2607 352.703957 301.2607 352.703957 301.2607 352.703957 
C 301.2607 352.703957 301.2607 352.703957 301.2607 352.703957 
C 301.2607 352.703957 301.2607 352.703957 301.2607 352.703957 
C 301.2607 352.703957 301.2607 352.703957 301.2607 352.703957 
C 301.2607 352.703957 301.2607 352.703957 301.2607 352.703957 
z
"/>
  </clipPath>
 </defs>
</svg>
